<?xml version="1.0" encoding="UTF-8" standalone="no"?>
<!DOCTYPE svg PUBLIC "-//W3C//DTD SVG 1.1//EN"
 "http://www.w3.org/Graphics/SVG/1.1/DTD/svg11.dtd">
<!-- Generated by graphviz version 2.43.0 (0)
 -->
<!-- Title: %3 Pages: 1 -->
<svg width="306pt" height="260pt"
 viewBox="0.00 0.00 305.74 260.00" xmlns="http://www.w3.org/2000/svg" xmlns:xlink="http://www.w3.org/1999/xlink">
<g id="graph0" class="graph" transform="scale(1 1) rotate(0) translate(4 256)">
<title>%3</title>
<polygon fill="white" stroke="transparent" points="-4,4 -4,-256 301.74,-256 301.74,4 -4,4"/>
<!-- 0 -->
<g id="node1" class="node">
<title>0</title>
<ellipse fill="none" stroke="black" cx="147.89" cy="-234" rx="61.99" ry="18"/>
<text text-anchor="middle" x="147.89" y="-230.3" font-family="Times,serif" font-size="14.00">&quot;petgraph&quot;</text>
</g>
<!-- 1 -->
<g id="node2" class="node">
<title>1</title>
<ellipse fill="none" stroke="black" cx="68.89" cy="-162" rx="68.79" ry="18"/>
<text text-anchor="middle" x="68.89" y="-158.3" font-family="Times,serif" font-size="14.00">&quot;fixedbitset&quot;</text>
</g>
<!-- 0&#45;&gt;1 -->
<g id="edge1" class="edge">
<title>0&#45;&gt;1</title>
<path fill="none" stroke="black" d="M129.57,-216.76C119.28,-207.64 106.25,-196.1 94.92,-186.06"/>
<polygon fill="black" stroke="black" points="97.2,-183.4 87.39,-179.39 92.55,-188.64 97.2,-183.4"/>
</g>
<!-- 2 -->
<g id="node3" class="node">
<title>2</title>
<ellipse fill="none" stroke="black" cx="226.89" cy="-162" rx="70.69" ry="18"/>
<text text-anchor="middle" x="226.89" y="-158.3" font-family="Times,serif" font-size="14.00">&quot;quickcheck&quot;</text>
</g>
<!-- 0&#45;&gt;2 -->
<g id="edge2" class="edge">
<title>0&#45;&gt;2</title>
<path fill="none" stroke="black" d="M166.22,-216.76C176.51,-207.64 189.53,-196.1 200.87,-186.06"/>
<polygon fill="black" stroke="black" points="203.23,-188.64 208.4,-179.39 198.59,-183.4 203.23,-188.64"/>
</g>
<!-- 3 -->
<g id="node4" class="node">
<title>3</title>
<ellipse fill="none" stroke="black" cx="191.89" cy="-90" rx="40.89" ry="18"/>
<text text-anchor="middle" x="191.89" y="-86.3" font-family="Times,serif" font-size="14.00">&quot;rand&quot;</text>
</g>
<!-- 2&#45;&gt;3 -->
<g id="edge3" class="edge">
<title>2&#45;&gt;3</title>
<path fill="none" stroke="black" d="M218.42,-144.05C214.34,-135.89 209.35,-125.91 204.81,-116.82"/>
<polygon fill="black" stroke="black" points="207.89,-115.17 200.29,-107.79 201.63,-118.3 207.89,-115.17"/>
</g>
<!-- 4 -->
<g id="node5" class="node">
<title>4</title>
<ellipse fill="none" stroke="black" cx="225.89" cy="-18" rx="36.29" ry="18"/>
<text text-anchor="middle" x="225.89" y="-14.3" font-family="Times,serif" font-size="14.00">&quot;libc&quot;</text>
</g>
<!-- 2&#45;&gt;4 -->
<g id="edge5" class="edge">
<title>2&#45;&gt;4</title>
<path fill="none" stroke="black" d="M233.13,-143.59C236.46,-133.37 240.21,-120.12 241.89,-108 244.09,-92.15 244.23,-87.83 241.89,-72 240.6,-63.21 238.15,-53.86 235.55,-45.5"/>
<polygon fill="black" stroke="black" points="238.84,-44.29 232.38,-35.9 232.19,-46.49 238.84,-44.29"/>
</g>
<!-- 3&#45;&gt;4 -->
<g id="edge4" class="edge">
<title>3&#45;&gt;4</title>
<path fill="none" stroke="black" d="M200.12,-72.05C204.09,-63.89 208.94,-53.91 213.35,-44.82"/>
<polygon fill="black" stroke="black" points="216.52,-46.31 217.74,-35.79 210.22,-43.25 216.52,-46.31"/>
</g>
</g>
</svg>
